#N canvas 0 24 1920 944 10;
#X text 177 277 creation arguments are OSC address;
#X text 179 238 set message to change OSC address;
#X floatatom 43 194 5 0 0 0 - - - 0;
#X obj 455 322 select 0 1 2 3 4 5 6 7 8;
#X floatatom 552 605 5 0 0 0 - - - 0;
#X obj 552 759 *~;
#X obj 543 804 dac~;
#X obj 551 574 mtof;
#X obj 492 487 + 0;
#X obj 667 665 vline~;
#X floatatom 799 423 5 0 0 0 - - - 0;
#X obj 799 370 loadbang;
#X msg 450 393 0;
#X floatatom 455 258 5 0 0 0 - - - 0;
#N canvas 836 4 2560 1037 oscReceive 0;
#X obj 55 184 netreceive -u -b;
#X msg 78 143 listen 0;
#X text 152 143 stop listening;
#X text 64 58 packets from network;
#X text 173 177 UDP packets \, binary output, f 13;
#X obj 45 314 print;
#X obj 45 272 oscparse;
#X text 150 114 listen on port 8000;
#X obj 177 269 oscparse;
#X obj 177 293 list trim;
#X floatatom 140 380 5 0 0 0 - - - 0;
#X text 241 267 Parse the OSC message;
#X obj 177 319 route unity;
#X obj 139 357 route trigger;
#X obj 140 407 s osctrig;
#X msg 66 115 listen 8000;
#X obj 66 84 loadbang;
#X floatatom 244 382 5 0 0 0 - - - 0;
#X obj 243 359 route tempo;
#X obj 244 409 s osctempo;
#X floatatom 339 382 5 0 0 0 - - - 0;
#X obj 338 359 route playseq;
#X obj 339 409 s oscplayseq;
#X floatatom 437 382 5 0 0 0 - - - 0;
#X obj 436 359 route colwall;
#X obj 437 409 s oscwall;
#X obj 547 362 route speed;
#X floatatom 548 385 5 0 0 0 - - - 0;
#X obj 548 412 s phasorspeed;
#X connect 0 0 6 0;
#X connect 0 0 8 0;
#X connect 1 0 0 0;
#X connect 6 0 5 0;
#X connect 8 0 9 0;
#X connect 9 0 12 0;
#X connect 10 0 14 0;
#X connect 12 0 13 0;
#X connect 12 0 18 0;
#X connect 12 0 21 0;
#X connect 12 0 24 0;
#X connect 12 0 26 0;
#X connect 13 0 10 0;
#X connect 15 0 0 0;
#X connect 16 0 15 0;
#X connect 17 0 19 0;
#X connect 18 0 17 0;
#X connect 20 0 22 0;
#X connect 21 0 20 0;
#X connect 23 0 25 0;
#X connect 24 0 23 0;
#X connect 26 0 27 0;
#X connect 27 0 28 0;
#X restore 160 62 pd oscReceive;
#X obj 30 17 tgl 15 0 empty empty empty 17 7 0 10 #fcfcfc #000000 #000000 0 1;
#X msg 30 42 \; pd dsp \$1;
#X msg 489 393 2;
#X msg 530 393 4;
#X msg 572 393 5;
#X msg 609 394 7;
#X msg 650 394 9;
#X msg 692 394 11;
#X msg 726 394 12;
#X obj 455 225 r osctrig;
#X obj 44 278 oscformat PD message;
#X msg 76 239 set PD message;
#N canvas 727 97 450 242 oscSend 0;
#X msg 158 207 disconnect;
#X obj 61 253 netsend -u -b;
#X obj 59 55 list prepend send;
#X obj 59 80 list trim;
#X msg 150 175 connect 127.0.0.1 8001;
#X obj 59 29 r oscOut;
#X text 301 163 send to port 8001;
#X msg 147 148 connect localhost 8001;
#X obj 147 108 loadbang;
#X connect 0 0 1 0;
#X connect 2 0 3 0;
#X connect 3 0 1 0;
#X connect 4 0 1 0;
#X connect 5 0 2 0;
#X connect 7 0 1 0;
#X connect 8 0 7 0;
#X restore 158 36 pd oscSend;
#X obj 44 313 s oscOut;
#X obj 1396 634 mtof;
#X obj 1395 593 + 0;
#X obj 1378 345 metro 4000;
#X floatatom 1436 316 5 0 0 0 - - - 0;
#X obj 1359 372 f;
#X obj 1402 381 + 1;
#X obj 1558 838 vline~;
#X floatatom 1542 531 5 0 0 0 - - - 0;
#X obj 1542 478 loadbang;
#X msg 1084 503 0;
#X obj 898 448 dac~;
#X obj 1032 346 vline~;
#X obj 860 226 noise~;
#X obj 1031 254 bng 15 250 50 0 empty empty empty 17 7 0 10 #fcfcfc #000000 #000000;
#X obj 1345 834 phasor~;
#X floatatom 1343 775 5 0 0 0 - - - 0;
#X obj 1420 833 phasor~;
#X obj 1419 802 * -1;
#X msg 1421 771 0;
#X msg 1469 771 0.5;
#X obj 1442 741 bng 15 250 50 0 empty empty empty 17 7 0 10 #fcfcfc #000000 #000000;
#X obj 1441 716 loadbang;
#X obj 1496 265 r osctempo;
#X obj 1421 239 loadbang;
#X msg 1437 283 500;
#X obj 1327 240 r oscplayseq;
#X obj 507 679 osc~;
#X obj 1025 216 r oscwall;
#X msg 1542 505 48;
#X obj 559 684 osc~;
#X msg 799 397 60;
#X obj 561 657 * 1.5;
#X msg 667 613 0.85 100 \, 0 500 500;
#X floatatom 176 448 5 0 0 0 - - - 0;
#X obj 196 705 *~;
#X obj 182 822 dac~;
#X obj 251 533 phasor~;
#X obj 250 494 * -1;
#X obj 193 597 +~;
#X obj 195 672 -~ 1;
#X msg 239 431 0;
#X obj 326 539 vsl 15 128 0 1 0 0 empty empty empty 0 -9 0 10 #fcfcfc #000000 #000000 0 1;
#X obj 176 534 phasor~;
#X obj 226 352 r phasorspeed;
#X obj 1296 937 *~ 2;
#X obj 1296 991 abs~;
#X obj 1296 1018 *~ 2;
#X obj 1297 1069 *~ 1;
#X obj 1297 1096 *~;
#X obj 1297 1123 dac~;
#X obj 1296 964 -~ 1;
#X text 1313 188 Sequence playback: tempo increases as more checkpoints are reached.;
#X text 946 189 Trigger noise burst when running into a spingate;
#X text 451 198 Tirgger when reaching a checkpoint;
#X msg 1123 503 2;
#X msg 1164 503 4;
#X msg 1202 503 6;
#X msg 1238 505 8;
#X obj 1196 446 select 0 1 2 3 4 5 6 7 8 9 10 11 12;
#X msg 1274 505 10;
#X msg 1304 506 12;
#X msg 1332 505 14;
#X msg 1360 503 16;
#X msg 1387 506 18;
#X msg 1413 503 20;
#X msg 1435 503 22;
#X msg 1467 503 22;
#X obj 1352 409 mod 12;
#X text 230 321 Square Wave;
#X text 1180 1023 Triangle Wave;
#X obj 268 753 vline~;
#X msg 271 703 1 250 0;
#X msg 1558 786 0.1 100 \, 0 500 500;
#X text 26 356 Square wave recieves messages from unity script to influence the frequency of the square wave with r phasorspeed, f 29;
#X text 321 426 Phasor frequences intentionally adjusted to mimic the sound of a motorcycle, f 30;
#X text 277 780 included vline to acount for noise clicks so that audio ramp up is smoother and included options for volume slide for user, f 29;
#X obj 276 391 loadbang;
#X msg 289 434 0.8;
#X obj 1367 298 tgl 16 0 empty empty empty 0 -8 0 10 #fcfcfc #000000 #000000 0 1;
#X text 1198 291 Enable toggle to initiate background song which utilizes triangle wave, f 26;
#X msg 842 127 1 25 \, 0 1000 75;
#X obj 1032 385 osc~;
#X msg 1007 294 880 0 \, 440 500 \, 880 500 500;
#X obj 894 360 vline~;
#X msg 890 319 1 0 \, 0 50 950;
#X obj 904 412 *~;
#X text 1053 254 oscillates from 880hz to 440hz back to 880hz over 1 second, f 28;
#X text 853 280 adjusts volume so that on each bang a single second of audio can be heard, f 22;
#X text 94 425 This number translates to the speed of the ball in unity \, changes frequency of square wave, f 11;
#X connect 2 0 25 0;
#X connect 3 0 12 0;
#X connect 3 1 17 0;
#X connect 3 2 18 0;
#X connect 3 3 19 0;
#X connect 3 4 20 0;
#X connect 3 5 21 0;
#X connect 3 6 22 0;
#X connect 3 7 23 0;
#X connect 3 8 12 0;
#X connect 4 0 55 0;
#X connect 4 0 60 0;
#X connect 5 0 6 0;
#X connect 5 0 6 1;
#X connect 7 0 4 0;
#X connect 8 0 7 0;
#X connect 8 0 61 0;
#X connect 9 0 5 1;
#X connect 10 0 8 1;
#X connect 11 0 59 0;
#X connect 12 0 8 0;
#X connect 13 0 3 0;
#X connect 15 0 16 0;
#X connect 17 0 8 0;
#X connect 18 0 8 0;
#X connect 19 0 8 0;
#X connect 20 0 8 0;
#X connect 21 0 8 0;
#X connect 22 0 8 0;
#X connect 23 0 8 0;
#X connect 24 0 13 0;
#X connect 25 0 28 0;
#X connect 26 0 25 0;
#X connect 29 0 44 0;
#X connect 30 0 29 0;
#X connect 31 0 33 0;
#X connect 31 0 101 0;
#X connect 32 0 31 1;
#X connect 33 0 34 0;
#X connect 33 0 96 0;
#X connect 34 0 33 1;
#X connect 35 0 77 1;
#X connect 36 0 30 1;
#X connect 37 0 57 0;
#X connect 38 0 30 0;
#X connect 40 0 110 0;
#X connect 42 0 111 0;
#X connect 42 0 113 0;
#X connect 43 0 73 0;
#X connect 44 0 43 0;
#X connect 44 0 46 0;
#X connect 45 0 73 0;
#X connect 46 0 45 0;
#X connect 47 0 43 1;
#X connect 48 0 45 1;
#X connect 49 0 47 0;
#X connect 49 0 48 0;
#X connect 50 0 49 0;
#X connect 51 0 32 0;
#X connect 52 0 53 0;
#X connect 53 0 32 0;
#X connect 54 0 53 0;
#X connect 54 0 107 0;
#X connect 55 0 5 0;
#X connect 56 0 42 0;
#X connect 57 0 36 0;
#X connect 58 0 5 0;
#X connect 59 0 10 0;
#X connect 60 0 58 0;
#X connect 61 0 9 0;
#X connect 62 0 71 0;
#X connect 62 0 66 0;
#X connect 62 0 100 0;
#X connect 63 0 64 0;
#X connect 63 0 64 1;
#X connect 65 0 67 1;
#X connect 66 0 65 0;
#X connect 67 0 68 0;
#X connect 68 0 63 0;
#X connect 69 0 71 1;
#X connect 70 0 63 1;
#X connect 71 0 67 0;
#X connect 72 0 62 0;
#X connect 73 0 79 0;
#X connect 74 0 75 0;
#X connect 75 0 76 0;
#X connect 76 0 77 0;
#X connect 77 0 78 0;
#X connect 77 0 78 1;
#X connect 79 0 74 0;
#X connect 83 0 30 0;
#X connect 84 0 30 0;
#X connect 85 0 30 0;
#X connect 86 0 30 0;
#X connect 87 0 38 0;
#X connect 87 1 83 0;
#X connect 87 2 84 0;
#X connect 87 3 85 0;
#X connect 87 5 86 0;
#X connect 87 6 88 0;
#X connect 87 7 89 0;
#X connect 87 8 90 0;
#X connect 87 9 91 0;
#X connect 87 10 92 0;
#X connect 87 11 93 0;
#X connect 87 12 94 0;
#X connect 87 13 95 0;
#X connect 88 0 30 0;
#X connect 89 0 30 0;
#X connect 90 0 30 0;
#X connect 91 0 30 0;
#X connect 92 0 30 0;
#X connect 93 0 30 0;
#X connect 94 0 30 0;
#X connect 95 0 30 0;
#X connect 96 0 87 0;
#X connect 99 0 63 1;
#X connect 100 0 99 0;
#X connect 101 0 35 0;
#X connect 105 0 69 0;
#X connect 105 0 106 0;
#X connect 106 0 65 1;
#X connect 107 0 31 0;
#X connect 110 0 114 0;
#X connect 111 0 40 0;
#X connect 112 0 114 1;
#X connect 113 0 112 0;
#X connect 114 0 39 0;
#X connect 114 0 39 1;
